<?xml version="1.0" standalone="no"?>
<!DOCTYPE svg PUBLIC "-//W3C//DTD SVG 20010904//EN"
 "http://www.w3.org/TR/2001/REC-SVG-20010904/DTD/svg10.dtd">
<svg version="1.0" xmlns="http://www.w3.org/2000/svg"
 width="210.000000pt" height="210.000000pt" viewBox="0 0 210.000000 210.000000"
 preserveAspectRatio="xMidYMid meet">

<g transform="translate(0.000000,210.000000) scale(0.100000,-0.100000)"
fill="#000000" stroke="none">
<path d="M975 1733 c-99 -13 -222 -67 -293 -128 -82 -71 -163 -205 -174 -289
-5 -31 -8 -32 -49 -10 -27 14 -33 14 -45 2 -18 -18 -32 -124 -16 -114 7 4 12
18 12 31 0 13 5 36 10 50 l10 27 32 -20 c31 -20 32 -21 34 -109 1 -63 8 -105
24 -148 23 -59 78 -153 104 -174 11 -9 -1 -25 -54 -79 -36 -38 -84 -96 -105
-130 -21 -34 -39 -62 -41 -62 -8 0 -54 101 -73 161 -27 84 -51 244 -51 345 0
84 -8 144 -19 144 -8 0 -3 -137 9 -272 13 -136 41 -242 86 -335 l37 -74 -31
-67 c-55 -123 -85 -243 -97 -394 -5 -63 -4 -88 4 -88 6 0 11 19 11 45 0 67 19
102 103 183 l74 74 39 -24 c33 -21 117 -57 185 -81 15 -5 15 -13 3 -79 -8 -40
-16 -83 -19 -96 -3 -12 -2 -22 3 -22 5 0 16 43 26 96 l18 96 32 -6 c86 -16
249 -26 321 -21 l81 7 59 -86 c32 -47 63 -86 67 -86 11 0 8 5 -58 99 l-52 73
71 58 c40 31 104 86 142 122 63 58 73 64 95 56 14 -5 46 -8 73 -6 26 2 47 1
47 -2 0 -3 -25 -30 -56 -60 -71 -70 -102 -123 -115 -197 -11 -61 1 -143 21
-143 4 0 4 17 -2 37 -14 50 -4 125 24 182 24 51 264 296 252 258 -14 -45 -45
-97 -92 -154 -86 -104 -104 -136 -109 -205 -5 -63 8 -118 27 -118 6 0 6 9 0
26 -16 40 -11 115 9 159 18 38 125 177 142 183 14 6 99 -111 110 -151 7 -25 7
-66 0 -125 -5 -48 -7 -89 -5 -91 10 -10 16 12 24 90 11 112 -3 220 -45 345
l-35 101 26 99 c17 69 26 137 30 224 2 69 6 160 9 203 2 43 1 76 -4 73 -4 -3
-11 -79 -14 -168 -13 -304 -56 -451 -155 -518 -29 -20 -48 -25 -102 -25 -55 0
-73 4 -107 27 -119 78 -116 264 8 513 50 100 122 211 127 196 2 -7 20 -1 49
16 44 26 46 26 59 8 8 -10 14 -37 15 -59 0 -36 2 -38 11 -19 11 22 5 77 -11
102 -8 12 -16 13 -49 3 -22 -7 -43 -19 -46 -27 -9 -24 -28 -18 -21 6 12 37
-10 13 -68 -75 -46 -68 -64 -87 -93 -96 -61 -20 -158 -8 -264 34 -85 34 -100
37 -155 31 -52 -5 -65 -3 -87 14 -22 18 -41 21 -115 21 -106 1 -170 14 -200
42 -13 12 -25 19 -28 16 -3 -3 8 -17 25 -31 17 -15 38 -43 46 -64 27 -64 103
-171 148 -208 122 -100 265 -109 435 -28 52 25 95 55 139 99 36 35 69 64 73
64 5 0 -5 -27 -21 -61 -17 -34 -44 -100 -59 -147 l-29 -87 -53 -13 c-72 -17
-293 -10 -374 12 -213 59 -360 214 -388 409 -29 205 88 434 273 531 221 117
512 73 693 -104 37 -37 70 -63 73 -58 3 5 -24 38 -60 73 -128 125 -336 193
-521 168z m-197 -634 l87 0 -43 -14 c-23 -7 -58 -25 -78 -40 -19 -15 -37 -25
-38 -24 -2 2 -14 24 -26 48 -19 37 -19 43 -5 37 9 -3 56 -6 103 -7z m182 -31
c19 0 51 1 70 3 23 2 67 -10 130 -35 61 -25 117 -40 158 -44 l63 -5 -38 -39
c-47 -49 -179 -115 -257 -129 -77 -14 -136 -5 -213 32 -57 28 -153 117 -153
143 0 13 28 34 85 62 37 18 59 23 85 19 19 -4 51 -7 70 -7z m-276 -267 c26
-29 152 -88 226 -106 120 -29 303 -30 408 -3 9 2 14 -14 16 -52 3 -30 7 -67
11 -81 l7 -27 -109 -7 c-149 -11 -322 0 -416 24 -89 23 -198 78 -254 126 l-38
33 55 56 c30 31 59 56 66 56 6 0 19 -9 28 -19z m-128 -132 c37 -41 169 -109
261 -135 8 -2 1 -30 -22 -86 -19 -46 -41 -114 -51 -153 -9 -38 -20 -73 -23
-78 -9 -9 -99 21 -178 61 l-62 32 -15 72 c-36 171 -35 163 -10 208 33 57 64
100 73 100 4 0 16 -9 27 -21z m525 -160 c76 0 169 3 208 7 50 5 71 3 71 -5 0
-6 19 -30 42 -53 l42 -42 -75 -68 c-41 -38 -103 -91 -139 -118 l-65 -50 -127
0 c-126 0 -275 15 -291 30 -15 13 64 267 94 306 7 8 24 9 57 2 26 -5 108 -9
183 -9z m-695 -274 l-77 -80 7 45 c10 69 52 209 81 270 l26 55 19 -105 20
-105 -76 -80z m1403 161 c30 -98 27 -105 -24 -50 l-45 48 17 43 c10 23 21 39
25 35 3 -4 16 -38 27 -76z"/>
<path d="M870 1569 c0 -4 7 -22 15 -40 10 -25 14 -29 15 -13 0 17 -29 70 -30
53z"/>
<path d="M748 1537 c-45 -27 -72 -61 -103 -129 -34 -77 -41 -125 -21 -147 22
-24 87 -34 137 -21 45 12 59 34 83 127 24 90 21 139 -9 168 -30 31 -40 31 -87
2z m81 -21 c15 -18 7 -118 -15 -178 -22 -64 -40 -78 -96 -78 -40 0 -48 3 -48
19 0 25 37 140 55 171 l14 25 1 -25 c0 -14 -7 -47 -15 -74 -16 -52 -12 -86 9
-86 18 0 40 28 68 87 l24 51 -22 -8 c-44 -17 -70 43 -38 88 17 25 46 29 63 8z
m-118 -49 c-26 -43 -61 -142 -61 -174 0 -12 -4 -23 -10 -23 -30 0 6 130 56
201 33 48 45 44 15 -4z"/>
<path d="M1250 1485 c-13 -14 -21 -27 -18 -30 2 -3 17 9 33 25 16 17 24 30 19
30 -6 0 -21 -11 -34 -25z"/>
<path d="M1298 1460 c-53 -41 -103 -221 -76 -277 17 -37 79 -66 150 -71 52 -4
57 -2 74 23 13 20 19 53 22 119 7 154 -27 226 -106 226 -24 0 -49 -8 -64 -20z
m88 -21 c16 -18 19 -37 19 -128 -1 -128 -20 -187 -57 -176 -99 27 -115 49
-104 139 7 60 34 144 35 109 1 -12 5 -24 11 -28 6 -4 6 -15 0 -31 -16 -41 -12
-100 9 -125 l18 -23 26 26 c17 17 27 41 32 74 3 27 11 57 16 68 10 17 9 17
-12 2 -13 -9 -29 -16 -36 -16 -22 0 -53 39 -53 65 0 29 32 65 58 65 11 0 27
-9 38 -21z m69 -149 c0 -98 -14 -154 -42 -164 -12 -5 -14 -2 -8 16 20 65 34
169 30 223 -5 51 -4 57 7 40 8 -13 13 -55 13 -115z"/>
<path d="M1005 1160 c-3 -5 -2 -10 4 -10 5 0 13 5 16 10 3 6 2 10 -4 10 -5 0
-13 -4 -16 -10z"/>
</g>
</svg>
